PathFileType	4	(X/Y/Z)	H:\MAC\Pilotos\Biomecanica2_gait_2020\Trimmed_walk3.trc
DataRate	CameraRate	NumFrames	NumMarkers	Units	OrigDataRate	OrigDataStartFrame	OrigNumFrames
150.00	150.00	       5	28	mm	150.00	95	       251
Frame#	Time	R.ASIS			L.ASIS			R.PSIS			L.PSIS			L.Iliac.Crest			R.Iliac.Crest			R.GTR			R.Knee			R.HF			R.TT			R.Ankle			R.Heel			R.MT1			R.MT5			L.GTR			L.Knee			L.HF			L.TT			L.Ankle			L.Heel			L.MT1			L.MT5			R.Knee.Medial			R.Ankle.Medial			R.MT2			L.Knee.Medial			L.Ankle.Medial			L.MT2			V_Mid_ASIS			V_Mid_PSIS			V_Pelvis_Origin			V_R.Hip_JC			V_R.Knee_JC_Static			V_R.TT			V_R.Ankle_JC_Static			V_L.Hip_JC			V_Mid_Hip			V_R.MT2_Static			V_R.Knee.Medial			V_R.Ankle.Medial			V_R.TT			V_L.Knee_JC_Static			V_L.TT			V_L.Ankle_JC_Static			V_L.MT2_Static			V_R.Knee_JC			V_R.Ankle_JC			V_L.Knee_JC			V_L.Ankle_JC			V_R.TT_KJC_Static			V_L.TT_KJC_Static			V_R.TT_KJC			V_L.TT_KJC			V_R.MT2			V_L.MT2			
		X1	Y1	Z1	X2	Y2	Z2	X3	Y3	Z3	X4	Y4	Z4	X5	Y5	Z5	X6	Y6	Z6	X7	Y7	Z7	X8	Y8	Z8	X9	Y9	Z9	X10	Y10	Z10	X11	Y11	Z11	X12	Y12	Z12	X13	Y13	Z13	X14	Y14	Z14	X15	Y15	Z15	X16	Y16	Z16	X17	Y17	Z17	X18	Y18	Z18	X19	Y19	Z19	X20	Y20	Z20	X21	Y21	Z21	X22	Y22	Z22	X23	Y23	Z23	X24	Y24	Z24	X25	Y25	Z25	X26	Y26	Z26	X27	Y27	Z27	X28	Y28	Z28	X29	Y29	Z29	X30	Y30	Z30	X31	Y31	Z31	X32	Y32	Z32	X33	Y33	Z33	X34	Y34	Z34	X35	Y35	Z35	X36	Y36	Z36	X37	Y37	Z37	X38	Y38	Z38	X39	Y39	Z39	X40	Y40	Z40	X41	Y41	Z41	X42	Y42	Z42	X43	Y43	Z43	X44	Y44	Z44	X45	Y45	Z45	X46	Y46	Z46	X47	Y47	Z47	X48	Y48	Z48	X49	Y49	Z49	X50	Y50	Z50	X51	Y51	Z51	X52	Y52	Z52	X53	Y53	Z53	X54	Y54	Z54	X55	Y55	Z55	

95	0.627	736.41504	947.06061	-148.82213	751.43805	949.39435	-406.63141	539.59149	943.60266	-266.76364	541.65576	939.46387	-349.59409	669.18213	995.57983	-460.90515	655.79572	1004.26672	-117.84770	636.04840	855.45471	-96.91073	546.96185	494.05219	-129.94830	518.04053	442.68689	-128.32744	569.40833	398.44482	-163.61664	291.93863	153.51733	-180.26608	244.77063	160.27780	-238.13878	399.34213	42.19880	-234.44557	351.78516	35.95286	-159.84938	690.74042	851.72394	-477.82037	772.60461	471.86972	-437.13730	790.71747	420.05978	-440.90576	851.91974	420.97269	-384.05203	840.55029	67.27202	-391.90201	797.08185	26.62333	-342.26923	1000.76862	62.75037	-356.72958	970.62274	43.17174	-396.96631	576.61945	471.09015	-260.55634	339.48642	161.17950	-258.79388	389.07681	33.09347	-198.06209	781.27045	468.74149	-300.17282	858.60162	88.00127	-306.79868	998.99323	63.93047	-322.22543																																																																																		
96	0.633	745.53076	947.98608	-150.26662	760.80768	951.00189	-407.89944	548.77502	943.86316	-267.44144	550.79395	940.59259	-350.27597	678.24432	997.32996	-461.89035	665.61774	1005.05737	-119.09687	646.22406	855.64447	-97.97795	561.02887	494.33536	-129.23224	530.83868	443.97388	-127.23038	582.28894	397.98792	-160.87144	299.59326	159.13684	-179.85156	254.35126	167.98686	-238.59245	400.35861	42.32144	-234.43591	352.44992	37.06665	-160.02554	699.68634	853.44867	-479.08179	781.63428	472.93393	-438.45526	799.71173	420.90158	-441.28128	859.12634	421.02161	-384.38336	841.42236	67.18885	-392.56305	797.62799	27.25264	-342.64023	1000.34381	58.14731	-357.28189	971.54584	40.47234	-398.54327	591.97974	469.49445	-259.12616	349.22610	164.38690	-257.34232	390.15189	32.49625	-198.16948	785.97589	470.42764	-300.90375	860.40753	87.68082	-307.77567	1000.62292	60.88152	-323.30630																																																																																		
97	0.640	754.76630	948.85168	-151.86823	769.74445	952.78809	-409.06894	557.91620	944.31781	-268.10303	559.94727	941.84863	-350.94559	687.11932	999.32861	-462.85947	674.85950	1005.95929	-120.09265	656.09363	855.84454	-99.06197	575.81012	494.42197	-128.15907	544.16913	445.19153	-125.72571	596.06158	397.69440	-158.13640	308.14487	164.62831	-179.93776	264.61371	175.79617	-239.20322	401.30624	42.19274	-234.83092	352.71991	38.92469	-160.16570	708.41107	855.09406	-480.29376	790.59070	473.63342	-439.88168	808.06451	421.30316	-442.29153	865.84375	420.62128	-384.96030	842.91461	66.91513	-392.93997	798.47760	28.04094	-342.94855	1002.88336	55.39512	-360.15958	972.43964	38.29876	-402.00012	608.96460	467.30246	-256.56128	359.67017	167.66751	-256.08459	390.90543	32.04787	-198.60645	792.66864	472.07608	-302.25534	862.33368	87.68906	-307.67746	1002.48132	58.83591	-325.85693																																																																																		
98	0.647	762.84924	949.97998	-153.29900	778.60565	954.71466	-410.23859	566.87561	944.91711	-268.74796	568.95959	943.16455	-351.55865	695.94830	1001.21350	-463.82193	684.02881	1006.98871	-121.17031	665.97955	856.01697	-100.25502	590.80750	494.03867	-127.10101	558.71399	445.98615	-125.14754	610.36707	397.39084	-155.48271	317.22760	169.95792	-179.80548	275.38657	183.69728	-239.87318	403.53033	43.27442	-235.12434	354.35062	41.15229	-160.41812	716.85675	856.64618	-481.51367	798.95416	473.87823	-441.29858	815.62799	421.18362	-443.40018	872.25140	419.92111	-385.98868	844.15106	66.72979	-393.10849	799.09259	28.58630	-342.99594	1005.51855	53.55814	-361.57816	973.14307	36.83854	-404.33115	626.78571	464.56073	-254.62662	370.05023	170.76974	-255.13495	392.44882	32.97278	-199.03194	800.16107	473.47360	-303.47797	864.17969	87.27277	-307.84760	1003.31915	57.37552	-327.93359																																																																																		
99	0.653	771.51404	950.92627	-154.88091	787.34174	956.42072	-411.36871	575.66113	945.64203	-269.43750	577.14972	944.62823	-351.90317	704.73560	1002.77795	-464.75589	692.92389	1008.17487	-122.28991	675.65936	856.14020	-101.46333	605.69757	493.26218	-126.26005	573.20728	446.37860	-124.08076	625.02179	396.73682	-153.69261	326.93942	175.10350	-179.60707	285.88086	191.34769	-240.00725	407.28448	45.29435	-235.18890	357.64337	43.92662	-160.58565	725.11798	857.99579	-482.64398	806.32178	473.86902	-442.60675	822.00580	420.89987	-444.56845	878.24902	419.03229	-387.57199	844.95477	66.56844	-393.11557	799.35553	28.94706	-343.05719	1006.18842	52.65543	-362.03397	974.00128	36.19763	-404.70663	644.76990	461.71512	-253.00172	380.44073	174.03928	-254.49339	395.10989	35.38140	-199.24414	808.10162	474.39981	-304.75452	865.22943	87.03339	-307.84476	1004.02881	56.05857	-328.03244																																																																																		
